# xmcd
#
# Track frame offsets: 
#        150
#        12610
#        25887
#        40475
#        55690
#        68620
#        80997
#        94370
#        107340
#        120635
#        134227
#        147160
#        160110
#        173200
#        186050
#        199015
#        211740
#        224990
#        237640
#        250885
#        264657
#        276965
#        291790
#        307422
#        319980
#
# Disc length: 4459 seconds
#
# Revision: 1
# Processed by: cddbd v1.5.2PL0 Copyright (c) Steve Scherf et al.
# Submitted via: ExactAudioCopy v0.99pb5
#
DISCID=92116919
DTITLE=Casey Bill Weldon - Complete Recorded Works, Vol. 3 (1937-1938)
DTITLE=
DYEAR=1993
DGENRE=Blues
TTITLE0=Give Me Another Shot
TTITLE1=I'll Get a Break Someday [take 1]
TTITLE2=I'll Get a Break Someday [take 2]
TTITLE3=Sold My Soul to the Devil
TTITLE4=I've Been Tricked
TTITLE5=No Good Woman
TTITLE6=Guitar Swing [take 3]
TTITLE7=Guitar Swing [take 3]
TTITLE8=Walkin' in My Sleep
TTITLE9=Sales Lady
TTITLE10=Lady Doctor Blues
TTITLE11=Casey Bill's New W.P.A.
TTITLE12=You Shoudn't Do That
TTITLE13=Rooster Blues
TTITLE14=Spider Blues
TTITLE15=Go Ahead, Buddy
TTITLE16=Red Hot Blues
TTITLE17=Worried About that Woman
TTITLE18=You're Laughing Now
TTITLE19=New Round and Round
TTITLE20=Christmas Time Blues
TTITLE21=I Believe You're Cheatin' on Me
TTITLE22=Way Down in Louisiana
TTITLE23=You Gotta Do Your Duty
TTITLE24=Midnight Blues
EXTD=
EXTT0=
EXTT1=
EXTT2=
EXTT3=
EXTT4=
EXTT5=
EXTT6=
EXTT7=
EXTT8=
EXTT9=
EXTT10=
EXTT11=
EXTT12=
EXTT13=
EXTT14=
EXTT15=
EXTT16=
EXTT17=
EXTT18=
EXTT19=
EXTT20=
EXTT21=
EXTT22=
EXTT23=
EXTT24=
PLAYORDER=
